<svg xmlns="http://www.w3.org/2000/svg" viewBox="0 0 64 64">
  <!-- Bottom chip - coral -->
  <ellipse cx="32" cy="52" rx="22" ry="8" fill="#E08060" stroke="#3D3532" stroke-width="2.5"/>
  <rect x="10" y="42" width="44" height="10" fill="#E08060"/>
  <line x1="10" y1="42" x2="10" y2="52" stroke="#3D3532" stroke-width="2.5"/>
  <line x1="54" y1="42" x2="54" y2="52" stroke="#3D3532" stroke-width="2.5"/>

  <!-- Second chip - orange -->
  <ellipse cx="32" cy="42" rx="22" ry="8" fill="#E07A3A" stroke="#3D3532" stroke-width="2.5"/>
  <rect x="10" y="32" width="44" height="10" fill="#E07A3A"/>
  <line x1="10" y1="32" x2="10" y2="42" stroke="#3D3532" stroke-width="2.5"/>
  <line x1="54" y1="32" x2="54" y2="42" stroke="#3D3532" stroke-width="2.5"/>

  <!-- Third chip - gold -->
  <ellipse cx="32" cy="32" rx="22" ry="8" fill="#D4A843" stroke="#3D3532" stroke-width="2.5"/>
  <rect x="10" y="22" width="44" height="10" fill="#D4A843"/>
  <line x1="10" y1="22" x2="10" y2="32" stroke="#3D3532" stroke-width="2.5"/>
  <line x1="54" y1="22" x2="54" y2="32" stroke="#3D3532" stroke-width="2.5"/>

  <!-- Fourth chip - teal -->
  <ellipse cx="32" cy="22" rx="22" ry="8" fill="#5B9A8B" stroke="#3D3532" stroke-width="2.5"/>
  <rect x="10" y="12" width="44" height="10" fill="#5B9A8B"/>
  <line x1="10" y1="12" x2="10" y2="22" stroke="#3D3532" stroke-width="2.5"/>
  <line x1="54" y1="12" x2="54" y2="22" stroke="#3D3532" stroke-width="2.5"/>

  <!-- Top chip - steel with Bitcoin symbol -->
  <ellipse cx="32" cy="12" rx="22" ry="8" fill="#5E7E96" stroke="#3D3532" stroke-width="2.5"/>
  <text x="32" y="17" text-anchor="middle" font-size="13" font-weight="bold" fill="#fff" font-family="sans-serif">&#8383;</text>
</svg>
